<svg width="175" height="32" viewBox="0 0 175 32" fill="none" xmlns="http://www.w3.org/2000/svg">
<path d="M41 18.9885L48.0533 11.6183L53.2692 17.0262L51.4614 18.9885L50.9131 18.4323L49.4017 19.9929L51.8615 22.5887H54.8843L52.0541 19.5911L53.8619 17.6597L66.5163 30.855H52.3949L41 18.9885Z" fill="black"/>
<path d="M68.3835 13.857L61.3154 21.2367L56.1144 15.8177L57.9221 13.857L58.4556 14.4282L59.9818 12.8689L57.522 10.2597H54.4992L57.3294 13.2548L55.5068 15.2001L42.8672 2H56.9738L68.3835 13.857Z" fill="url(#paint0_linear_2658:5469)"/>
<path d="M80.7625 15.9314L79.8865 19.7339H74.4688L78.8808 3.51427C79.1079 2.63935 79.8217 2.06729 80.6651 2.06729H85.5314C86.4074 2.06729 87.1211 2.63935 87.3157 3.51427L91.7278 19.7339H86.31L85.4341 15.9314H80.7625ZM83.7147 8.25903C83.5849 7.61966 83.4551 6.87935 83.4227 6.23998H82.7414C82.6765 6.87935 82.5792 7.61966 82.4494 8.25903L81.606 12.0279H84.5257L83.7147 8.25903Z" fill="black"/>
<path d="M98.1195 14.4171C98.1195 14.9555 98.5088 15.3257 99.1576 15.3257H104.867L105.127 19.4647C102.596 19.8349 99.6118 19.8349 96.8218 19.8349C94.3563 19.8349 92.7666 18.186 92.7666 15.8305V2.10095H98.1195V14.4171Z" fill="black"/>
<path d="M119.271 19.4984C116.805 19.8349 113.366 19.8349 110.414 19.8349C108.078 19.8349 106.424 18.186 106.424 15.8304V6.00444C106.424 3.61523 108.078 2 110.414 2C113.334 2 116.805 2 119.271 2.33651L119.011 6.23999H112.782C112.166 6.23999 111.777 6.61015 111.777 7.14856V8.86475H118.135V12.5663H111.777V14.6863C111.777 15.2247 112.166 15.5949 112.782 15.5949H119.011L119.271 19.4984Z" fill="black"/>
<path d="M127.577 6.23999C126.895 6.23999 126.506 6.61015 126.506 7.14856V9.2349H132.605V12.9028H126.538V19.7339H121.186V6.00444C121.186 3.61523 122.873 2 125.241 2C128.063 2 131.47 2 133.805 2.37016L133.546 6.27364H127.577V6.23999Z" fill="black"/>
<path d="M74.5654 27.2259C74.8881 27.1878 75.243 27.1878 75.6302 27.1878C76.5014 27.1878 76.8241 27.6834 76.8241 29.0939C76.8241 30.5044 76.5014 31 75.6302 31C75.2108 31 74.8558 30.9619 74.5654 30.9619V27.2259ZM74.8558 30.6188C75.0817 30.6188 75.3398 30.6188 75.6302 30.6188C76.2756 30.6188 76.5014 30.1994 76.5014 29.0558C76.5014 27.9121 76.2756 27.4547 75.6302 27.4547C75.3398 27.4547 75.0817 27.4547 74.8558 27.4547V30.6188Z" fill="black"/>
<path d="M82.309 30.8851C81.8895 30.9232 81.4055 30.9232 80.986 30.9232C80.6634 30.9232 80.4375 30.6945 80.4375 30.3133V27.8354C80.4375 27.4541 80.6634 27.2254 80.986 27.2254C81.4378 27.2254 81.8895 27.2254 82.309 27.2635L82.2767 27.5304H81.0183C80.8247 27.5304 80.7279 27.6447 80.7279 27.9116V28.8265H82.1154V29.0934H80.7279V30.237C80.7279 30.5039 80.8247 30.6183 81.0183 30.6183H82.2767L82.309 30.8851Z" fill="black"/>
<path d="M87.0518 30.8089C87.0195 30.8851 86.9872 30.9232 86.9227 30.9232H86.6C86.5355 30.9232 86.5032 30.8851 86.471 30.8089L85.4707 27.2254H85.7934L86.6 30.237C86.6323 30.3895 86.6646 30.5039 86.6968 30.6564H86.8259C86.8582 30.542 86.8904 30.3895 86.9227 30.237L87.7294 27.2254H88.052L87.0518 30.8089Z" fill="black"/>
<path d="M93.3129 30.8851C92.8934 30.9232 92.4094 30.9232 91.9899 30.9232C91.6673 30.9232 91.4414 30.6945 91.4414 30.3133V27.8354C91.4414 27.4541 91.6673 27.2254 91.9899 27.2254C92.4417 27.2254 92.8934 27.2254 93.3129 27.2635L93.2806 27.5304H92.0222C91.8286 27.5304 91.7318 27.6447 91.7318 27.9116V28.8265H93.1193V29.0934H91.7318V30.237C91.7318 30.5039 91.8286 30.6183 92.0222 30.6183H93.2806L93.3129 30.8851Z" fill="black"/>
<path d="M97.1518 30.1989C97.1518 30.4658 97.2808 30.5801 97.4744 30.5801H98.636V30.847C98.2488 30.8851 97.8294 30.8851 97.4099 30.8851C97.0227 30.8851 96.8291 30.6182 96.8291 30.237V27.1873H97.1195V30.1989H97.1518Z" fill="black"/>
<path d="M104.25 29.0552C104.25 30.4657 103.927 30.9613 103.056 30.9613C102.185 30.9613 101.862 30.4657 101.862 29.0552C101.862 27.6447 102.185 27.1491 103.056 27.1491C103.927 27.1491 104.25 27.6447 104.25 29.0552ZM102.153 29.0552C102.153 30.237 102.379 30.6563 103.056 30.6563C103.734 30.6563 103.96 30.237 103.96 29.0552C103.96 27.8735 103.734 27.4541 103.056 27.4541C102.379 27.4541 102.153 27.8735 102.153 29.0552Z" fill="black"/>
<path d="M107.864 27.2254C108.187 27.1873 108.413 27.1873 108.897 27.1873C109.607 27.1873 109.865 27.416 109.865 28.3309C109.865 29.2077 109.607 29.4746 108.929 29.4746C108.606 29.4746 108.348 29.4365 108.155 29.4365V30.9613H107.864V27.2254ZM108.897 29.1315C109.381 29.1315 109.574 28.979 109.574 28.2928C109.574 27.6447 109.413 27.4541 108.897 27.4541C108.606 27.4541 108.316 27.4541 108.155 27.4541V29.0934H108.897V29.1315Z" fill="black"/>
<path d="M116.286 27.2254C116.383 27.2254 116.415 27.3016 116.415 27.3779L116.544 30.9232H116.254L116.125 27.5304H116.028L115.221 30.4276C115.189 30.5039 115.157 30.542 115.092 30.542H114.802C114.737 30.542 114.673 30.5039 114.673 30.4276L113.866 27.5304H113.769L113.64 30.9232H113.35L113.479 27.3779C113.479 27.2635 113.511 27.2254 113.608 27.2254H113.963C114.027 27.2254 114.059 27.2635 114.092 27.3398L114.769 29.7414C114.802 29.8939 114.866 30.0845 114.898 30.237H114.995C115.027 30.0845 115.092 29.8939 115.124 29.7414L115.802 27.3398C115.834 27.2635 115.866 27.2254 115.931 27.2254H116.286Z" fill="black"/>
<path d="M122.062 30.8851C121.642 30.9232 121.158 30.9232 120.739 30.9232C120.416 30.9232 120.19 30.6945 120.19 30.3133V27.8354C120.19 27.4541 120.416 27.2254 120.739 27.2254C121.191 27.2254 121.642 27.2254 122.062 27.2635L122.03 27.5304H120.771C120.578 27.5304 120.481 27.6447 120.481 27.9116V28.8265H121.868V29.0934H120.481V30.237C120.481 30.5039 120.578 30.6183 120.771 30.6183H122.03L122.062 30.8851Z" fill="black"/>
<path d="M127.934 30.7326C127.934 30.847 127.901 30.8851 127.804 30.8851H127.482C127.417 30.8851 127.353 30.847 127.353 30.7707L126.159 27.9878C126.094 27.8735 126.03 27.6829 125.998 27.5304H125.901C125.901 27.6829 125.901 27.8354 125.901 27.9878V30.8851H125.61V27.3398C125.61 27.2254 125.643 27.1873 125.739 27.1873H126.062C126.127 27.1873 126.191 27.2254 126.191 27.3017L127.353 30.0464C127.417 30.1989 127.482 30.3895 127.546 30.542H127.643C127.643 30.3514 127.643 30.1989 127.643 30.0083V27.1873H127.934V30.7326Z" fill="black"/>
<path d="M132.677 27.5304V30.9232H132.387V27.5304H131.354V27.2254H133.742V27.5304H132.677Z" fill="black"/>
<path d="M134 23.9553H74.3066V24.6304H134V23.9553Z" fill="black"/>
<defs>
<linearGradient id="paint0_linear_2658:5469" x1="55.6212" y1="21.2336" x2="55.6212" y2="2.00392" gradientUnits="userSpaceOnUse">
<stop stop-color="#2B5972"/>
<stop offset="1" stop-color="#427FA2"/>
</linearGradient>
</defs>
</svg>
